<svg xmlns="http://www.w3.org/2000/svg" width="36" height="36" viewBox="0 0 36 36"><g transform="translate(0 -1016.362)"><g transform="translate(2 -2)"><circle cx="16" cy="1036.362" r="16" fill="#f05542" color="#000" overflow="visible" style="isolation:auto;mix-blend-mode:normal"/><circle style="isolation:auto;mix-blend-mode:normal" cx="16" cy="1036.362" r="16" fill="#f05542" color="#000" overflow="visible"/><path fill="#fcd062" style="isolation:auto;mix-blend-mode:normal" d="m 16.5,1 c -0.554005,0 -1,0.446 -1,1 0,0.554 0.445995,1 1,1 l 1,0 c 0.554005,0 1,0.446 1,1 0,0.554 -0.445995,1 -1,1 l -2,0 c -0.554005,0 -1,0.446 -1,1 0,0.554 0.445995,1 1,1 L 29.208984,7 A 16,16 0 0 0 27.607422,5 L 24.5,5 c -0.554005,0 -1,-0.446 -1,-1 0,-0.554 0.445995,-1 1,-1 l 0.804688,0 A 16,16 0 0 0 21.509766,1 L 16.5,1 Z" color="#000" overflow="visible" transform="translate(0 1020.362)"/><path fill="#f17f53" style="isolation:auto;mix-blend-mode:normal" d="m 22,9 a 1,1 0 0 0 -1,1 1,1 0 0 0 1,1 1,1 0 0 0 1,-1 1,1 0 0 0 -1,-1 z m 4,0 c -0.55401,0 -1,0.446 -1,1 0,0.554 0.44599,1 1,1 l 2,0 c 0.554005,0 1,0.446 1,1 0,0.554 -0.445995,1 -1,1 l -4,0 c -0.554005,0 -1,0.446 -1,1 0,0.554 0.445995,1 1,1 l 7.962891,0 A 16,16 0 0 0 30.375,9 L 26,9 Z" color="#000" overflow="visible" transform="translate(0 1020.362)"/><path fill="#fcd062" style="isolation:auto;mix-blend-mode:normal" d="m 0.03710937,17 c 0.0437988,0.671424 0.12990728,1.339417 0.25781251,2 l 1.77650672,0 c 0.554005,0 1,0.446 1,1 0,0.554 -0.445995,1 -1,1 L 0.82421875,21 C 1.0459093,21.6839 1.3134427,22.352081 1.625,23 L 14,23 c 0.554005,0 1,-0.446 1,-1 0,-0.554 -0.445995,-1 -1,-1 l -1,0 c -0.554005,0 -1,-0.446 -1,-1 0,-0.554 0.445995,-1 1,-1 l 5,0 c 0.554005,0 1,-0.446 1,-1 0,-0.554 -0.445995,-1 -1,-1 z" color="#000" overflow="visible" transform="translate(0 1020.362)"/><path fill="#f17f53" style="isolation:auto;mix-blend-mode:normal" d="M2.7910156 25a16 16 0 0 0 1.6015625 2L9 27c.554005 0 1-.446 1-1 0-.554-.445995-1-1-1l-6.2089844 0zm3.9042969 4a16 16 0 0 0 3.7949215 2L11 31c.554005 0 1-.446 1-1 0-.554-.445995-1-1-1l-4.3046875 0zM21 25c-.554005 0-1 .446-1 1 0 .554.445995 1 1 1l2 0c.554005 0 1 .446 1 1 0 .554-.445995 1-1 1l-1.5 0c-.554005 0-1 .446-1 1 0 .554.445995 1 1 1l.03125 0a16 16 0 0 0 7.695312-6L21 25z" color="#000" overflow="visible" transform="translate(0 1020.362)"/><circle style="isolation:auto;mix-blend-mode:normal" cx="17" cy="1042.362" r="1" fill="#fcd062" color="#000" overflow="visible"/><circle cx="21" cy="1040.362" r="1" fill="#fcd062" color="#000" overflow="visible" style="isolation:auto;mix-blend-mode:normal"/><path fill="#f17f53" style="isolation:auto;mix-blend-mode:normal" d="M 2.7734375,7 A 16,16 0 0 0 0.29101562,13 L 7,13 C 7.554005,13 8,12.554 8,12 8,11.446 7.554005,11 7,11 L 6,11 C 5.445995,11 5,10.554 5,10 5,9.446 5.445995,9 6,9 l 5,0 C 11.554005,9 12,8.554 12,8 12,7.446 11.554005,7 11,7 L 2.7734375,7 Z" color="#000" overflow="visible" transform="translate(0 1020.362)"/></g><path fill="#e9eded" style="line-height:normal;text-indent:0;text-align:start;text-decoration-line:none;text-decoration-style:solid;text-decoration-color:#000;text-transform:none;block-progression:tb;isolation:auto;mix-blend-mode:normal" d="M 18 1 C 9.914015 1 2.9607344 6.7221603 1.359375 14.630859 A 1.0001 1.0001 0 0 0 1.3125 14.796875 C 1.3121064 14.796875 1.3109369 14.796641 1.3105469 14.806641 A 1.0001 1.0001 0 0 0 1.3066406 14.824219 A 1.0001 1.0001 0 0 0 1.2910156 14.990234 A 1.0001 1.0001 0 0 0 1.2910156 15 C 1.1110848 15.9889 1.0023877 16.991747 1 17.998047 A 1.0001 1.0001 0 0 0 1 18.009766 C 1.00514 18.545566 1.0360949 19.080281 1.0917969 19.613281 C 1.1177829 19.878262 1.1490243 20.142331 1.1875 20.40625 C 1.19438 20.45325 1.1958962 20.462641 1.1914062 20.431641 L 1.1914062 20.421875 C 1.2252052 20.668375 1.2640072 20.913403 1.3085938 21.158203 A 1.0001 1.0001 0 0 0 1.3105469 21.171875 C 1.3136769 21.187875 1.31429 21.190641 1.3125 21.181641 C 1.5930595 22.64694 2.0650422 24.07001 2.7167969 25.412109 C 2.7107169 25.400109 2.7041694 25.382781 2.7246094 25.425781 A 1.0001 1.0001 0 0 0 2.7265625 25.435547 C 3.0876721 26.172847 3.5011092 26.883047 3.9648438 27.560547 A 1.0001 1.0001 0 0 0 4.0253906 27.640625 A 1.0001 1.0001 0 0 0 4.0332031 27.650391 C 4.3195066 28.066491 4.6211374 28.474381 4.9433594 28.863281 C 5.1743768 29.143781 5.4135968 29.416541 5.6621094 29.681641 A 1.0001 1.0001 0 0 0 5.6679688 29.691406 C 7.4029978 31.515206 9.5344736 32.903594 11.880859 33.808594 L 11.783203 33.708984 A 1.0001 1.0001 0 0 0 11.9375 33.835938 C 11.9389 33.836437 11.940006 33.835938 11.941406 33.835938 C 12.010636 33.861937 12.069053 33.909547 12.138672 33.935547 A 1.0001 1.0001 0 0 0 12.142578 33.935547 C 12.144478 33.936247 12.146438 33.935547 12.148438 33.935547 C 14.020462 34.629647 15.999504 34.988794 17.996094 34.996094 A 1.0001 1.0001 0 0 0 18.001953 34.996094 C 20.00828 34.996094 21.997975 34.631794 23.878906 33.933594 C 23.959396 33.907594 24.039046 33.882469 24.119141 33.855469 A 1.0001 1.0001 0 0 0 24.164062 33.837891 C 25.089521 33.472591 25.980639 33.027059 26.828125 32.505859 C 26.861145 32.486859 26.894834 32.468219 26.927734 32.449219 A 1.0001 1.0001 0 0 0 26.958984 32.431641 C 27.340676 32.192141 27.710826 31.933162 28.072266 31.664062 L 28.087891 31.654297 A 1.0001 1.0001 0 0 0 28.136719 31.623047 C 28.208359 31.572047 28.278758 31.52045 28.349609 31.46875 A 1.0001 1.0001 0 0 0 28.375 31.449219 C 28.725073 31.175619 29.065015 30.888091 29.392578 30.587891 C 29.480478 30.511891 29.567968 30.436975 29.654297 30.359375 A 1.0001 1.0001 0 0 0 29.681641 30.333984 L 29.6875 30.324219 L 29.693359 30.324219 L 29.695312 30.324219 C 29.973041 30.055919 30.24119 29.776834 30.5 29.490234 L 30.533203 29.457031 A 1.0001 1.0001 0 0 0 30.550781 29.439453 C 30.651771 29.333453 30.751389 29.227641 30.849609 29.119141 A 1.0001 1.0001 0 0 0 30.873047 29.091797 C 31.087933 28.836497 31.292699 28.574141 31.492188 28.306641 L 31.511719 28.285156 A 1.0001 1.0001 0 0 0 31.527344 28.263672 C 31.683963 28.066472 31.83667 27.866109 31.984375 27.662109 A 1.0001 1.0001 0 0 0 31.994141 27.648438 C 32.012891 27.621438 32.032181 27.593406 32.050781 27.566406 A 1.0001 1.0001 0 0 0 32.052734 27.566406 C 32.363988 27.109706 32.652661 26.639097 32.917969 26.154297 C 34.283401 23.655197 34.999743 20.853759 35 18.005859 C 34.9946 14.03696 33.599412 10.195384 31.058594 7.1464844 L 31.054688 7.1367188 C 30.82421 6.8570188 30.585774 6.5847125 30.337891 6.3203125 A 1.0001 1.0001 0 0 0 30.332031 6.3105469 C 28.582938 4.4720471 26.43348 3.0718686 24.064453 2.1679688 C 24.064453 2.1679688 24.0625 2.1679688 24.0625 2.1679688 A 1.0001 1.0001 0 0 0 23.857422 2.0644531 L 23.855469 2.0644531 C 21.982254 1.3693532 20.00193 1.0092531 18.003906 1.0019531 A 1.0001 1.0001 0 0 0 18 1.0019531 L 18 1 z M 18 2 A 15.999996 15.999996 0 0 1 23.509766 3 A 15.999996 15.999996 0 0 0 23.511719 3.0019531 A 15.999996 15.999996 0 0 1 29.607422 7 A 15.999996 15.999996 0 0 1 30.287109 7.7734375 A 15.999996 15.999996 0 0 1 34 18 A 15.999996 15.999996 0 0 1 32.041016 25.669922 A 15.999996 15.999996 0 0 1 31.226562 27 A 15.999996 15.999996 0 0 1 31.173828 27.076172 A 15.999996 15.999996 0 0 1 30.744141 27.642578 A 15.999996 15.999996 0 0 1 30.724609 27.666016 A 15.999996 15.999996 0 0 1 30.107422 28.447266 A 15.999996 15.999996 0 0 1 29.826172 28.75 A 15.999996 15.999996 0 0 1 29.792969 28.783203 A 15.999996 15.999996 0 0 1 28.988281 29.617188 A 15.999996 15.999996 0 0 0 28.986328 29.619141 A 15.999996 15.999996 0 0 1 28.726562 29.847656 A 15.999996 15.999996 0 0 1 28.716797 29.855469 A 15.999996 15.999996 0 0 1 27.759766 30.666016 A 15.999996 15.999996 0 0 1 27.558594 30.810547 A 15.999996 15.999996 0 0 1 27.542969 30.820312 A 15.999996 15.999996 0 0 1 26.427734 31.587891 A 15.999996 15.999996 0 0 1 26.304688 31.658203 A 15.999996 15.999996 0 0 1 23.796875 32.912109 A 15.999996 15.999996 0 0 1 23.53125 33 A 15.999996 15.999996 0 0 1 18 34 A 15.999996 15.999996 0 0 1 12.490234 33 A 15.999996 15.999996 0 0 0 12.488281 32.998047 A 15.999996 15.999996 0 0 1 12.482422 32.996094 A 15.999996 15.999996 0 0 1 6.3925781 29 A 15.999996 15.999996 0 0 1 5.7128906 28.226562 A 15.999996 15.999996 0 0 1 4.7949219 27.003906 A 15.999996 15.999996 0 0 1 4.7910156 27 A 15.999996 15.999996 0 0 1 3.625 25 C 3.6222188 24.994216 3.6199617 24.988209 3.6171875 24.982422 A 15.999996 15.999996 0 0 1 2.2949219 21 C 2.2942916 20.996745 2.2935968 20.99349 2.2929688 20.990234 A 15.999996 15.999996 0 0 1 2.2929688 20.986328 A 15.999996 15.999996 0 0 1 2.1816406 20.289062 C 2.1804864 20.281228 2.1788769 20.273462 2.1777344 20.265625 C 2.1410984 20.014336 2.1105739 19.762529 2.0859375 19.509766 A 15.999996 15.999996 0 0 1 2 18 A 15.999996 15.999996 0 0 1 2.2910156 15 A 15.999996 15.999996 0 0 0 2.2910156 14.998047 A 15.999996 15.999996 0 0 1 2.2929688 14.994141 A 15.999996 15.999996 0 0 1 18 2 z " color="#000" font-family="sans-serif" font-weight="400" overflow="visible" transform="translate(0 1016.362)"/></g></svg>