<svg xmlns="http://www.w3.org/2000/svg" width="64" height="64"><g transform="translate(0 -988.362)"><circle cx="32" cy="1020.362" r="31.5" fill="#34485c" stroke="#34485c" stroke-dashoffset="1.5" stroke-linecap="round" stroke-linejoin="round" color="#000" overflow="visible"/><path fill="#fff" d="m -9.5602077,1056.856 -1.6576413,-1.6808 -2.275945,0.6268 1.68077,-1.6577 -0.626768,-2.2759 1.657641,1.6808 2.2759447,-0.6268 -1.6807697,1.6576 z" color="#000" overflow="visible" transform="matrix(.90224 .5209 -.5209 .90224 599.271 49.684)"/><path fill="#fff" d="m -9.5602077,1056.856 -1.6576413,-1.6808 -2.275945,0.6268 1.68077,-1.6577 -0.626768,-2.2759 1.657641,1.6808 2.2759447,-0.6268 -1.6807697,1.6576 z" color="#000" overflow="visible" transform="rotate(30 -505.854 911.073) scale(.69454)"/><path fill="#fff" d="m -9.5602077,1056.856 -1.6576413,-1.6808 -2.275945,0.6268 1.68077,-1.6577 -0.626768,-2.2759 1.657641,1.6808 2.2759447,-0.6268 -1.6807697,1.6576 z" color="#000" overflow="visible" transform="rotate(30 -47.042 1061.457) scale(.955)"/><path fill="#fff" d="m -9.5602077,1056.856 -1.6576413,-1.6808 -2.275945,0.6268 1.68077,-1.6577 -0.626768,-2.2759 1.657641,1.6808 2.2759447,-0.6268 -1.6807697,1.6576 z" color="#000" overflow="visible" transform="rotate(30 -151.613 1071.782) scale(.86818)"/><path fill="#fff" d="m -9.5602077,1056.856 -1.6576413,-1.6808 -2.275945,0.6268 1.68077,-1.6577 -0.626768,-2.2759 1.657641,1.6808 2.2759447,-0.6268 -1.6807697,1.6576 z" color="#000" overflow="visible" transform="rotate(30 -835.51 816.03) scale(.52091)"/><path fill="#fff" d="m -9.5602077,1056.856 -1.6576413,-1.6808 -2.275945,0.6268 1.68077,-1.6577 -0.626768,-2.2759 1.657641,1.6808 2.2759447,-0.6268 -1.6807697,1.6576 z" color="#000" overflow="visible" transform="rotate(30 -631.672 974.438) scale(.65113)"/><g transform="translate(16 -16)"><circle cx="16" cy="1036.362" r="16" fill="#f05542" color="#000" overflow="visible"/><circle cx="16" cy="1036.362" r="16" fill="#f05542" color="#000" overflow="visible"/><path fill="#fcd062" d="m 16.5,1 c -0.554005,0 -1,0.446 -1,1 0,0.554 0.445995,1 1,1 l 1,0 c 0.554005,0 1,0.446 1,1 0,0.554 -0.445995,1 -1,1 l -2,0 c -0.554005,0 -1,0.446 -1,1 0,0.554 0.445995,1 1,1 L 29.208984,7 A 16,16 0 0 0 27.607422,5 L 24.5,5 c -0.554005,0 -1,-0.446 -1,-1 0,-0.554 0.445995,-1 1,-1 l 0.804688,0 A 16,16 0 0 0 21.509766,1 L 16.5,1 z" color="#000" overflow="visible" transform="translate(0 1020.362)"/><path fill="#f17f53" d="m 22,9 a 1,1 0 0 0 -1,1 1,1 0 0 0 1,1 1,1 0 0 0 1,-1 1,1 0 0 0 -1,-1 z m 4,0 c -0.55401,0 -1,0.446 -1,1 0,0.554 0.44599,1 1,1 l 2,0 c 0.554005,0 1,0.446 1,1 0,0.554 -0.445995,1 -1,1 l -4,0 c -0.554005,0 -1,0.446 -1,1 0,0.554 0.445995,1 1,1 l 7.962891,0 A 16,16 0 0 0 30.375,9 L 26,9 z" color="#000" overflow="visible" transform="translate(0 1020.362)"/><path fill="#fcd062" d="m 0.03710937,17 c 0.0437988,0.671424 0.12990728,1.339417 0.25781251,2 l 1.77650672,0 c 0.554005,0 1,0.446 1,1 0,0.554 -0.445995,1 -1,1 L 0.82421875,21 C 1.0459093,21.6839 1.3134427,22.352081 1.625,23 L 14,23 c 0.554005,0 1,-0.446 1,-1 0,-0.554 -0.445995,-1 -1,-1 l -1,0 c -0.554005,0 -1,-0.446 -1,-1 0,-0.554 0.445995,-1 1,-1 l 5,0 c 0.554005,0 1,-0.446 1,-1 0,-0.554 -0.445995,-1 -1,-1 z" color="#000" overflow="visible" transform="translate(0 1020.362)"/><path fill="#f17f53" d="M2.7910156 25a16 16 0 0 0 1.6015625 2L9 27c.554005 0 1-.446 1-1 0-.554-.445995-1-1-1l-6.2089844 0zm3.9042969 4a16 16 0 0 0 3.7949215 2L11 31c.554005 0 1-.446 1-1 0-.554-.445995-1-1-1l-4.3046875 0zM21 25c-.554005 0-1 .446-1 1 0 .554.445995 1 1 1l2 0c.554005 0 1 .446 1 1 0 .554-.445995 1-1 1l-1.5 0c-.554005 0-1 .446-1 1 0 .554.445995 1 1 1l.03125 0a16 16 0 0 0 7.695312-6L21 25z" color="#000" overflow="visible" transform="translate(0 1020.362)"/><circle cx="17" cy="1042.362" r="1" fill="#fcd062" color="#000" overflow="visible"/><circle cx="21" cy="1040.362" r="1" fill="#fcd062" color="#000" overflow="visible"/><path fill="#f17f53" d="M 2.7734375,7 A 16,16 0 0 0 0.29101562,13 L 7,13 C 7.554005,13 8,12.554 8,12 8,11.446 7.554005,11 7,11 L 6,11 C 5.445995,11 5,10.554 5,10 5,9.446 5.445995,9 6,9 l 5,0 C 11.554005,9 12,8.554 12,8 12,7.446 11.554005,7 11,7 L 2.7734375,7 z" color="#000" overflow="visible" transform="translate(0 1020.362)"/></g></g></svg>